<?xml version="1.0" encoding="UTF-8"?>
<svg width="50px" height="50px" viewBox="0 0 50 50" version="1.1" xmlns="http://www.w3.org/2000/svg" xmlns:xlink="http://www.w3.org/1999/xlink">
    <!-- Generator: Sketch 52.5 (67469) - http://www.bohemiancoding.com/sketch -->
    <title>logotype</title>
    <desc>Created with Sketch.</desc>
    <g id="Interfaces-(destkop/mobile)" stroke="none" stroke-width="1" fill="none" fill-rule="evenodd">
        <g id="accueil_d@2x" transform="translate(-390.000000, -25.000000)">
            <g id="HEADER" transform="translate(390.000000, 25.000000)">
                <g id="LOGO">
                    <g id="logotype">
                        <circle id="Oval" fill="#252525" fill-rule="nonzero" cx="25" cy="25" r="25"></circle>
                        <path d="M27.7,15.3 L31.6,15.3 C31.35,12.95 29.4,11.15 27.05,11.15 L23.4,11.15 C21.05,11.15 19,12.9 18.85,15.3 L27.7,15.3 Z" id="Shape"></path>
                        <path d="M17.05,33.1 L17.15,17 C14.8,17.15 13,19.2 13,21.55 L13,28.55 C12.9,30.9 14.8,32.85 17.05,33.1 Z" id="Shape"></path>
                        <path d="M33.2,19.35 C33.2,20.35 34.05,21.2 35.05,21.2 C36.05,21.2 37,20.35 37,19.35 L37,18.85 C37,17.85 36.15,16.9 35.15,16.9 L33.2,16.9 L33.2,19.35 Z" id="Shape"></path>
                        <path d="M27.6,34.7 L18.75,34.7 C19,37 20.95,38.85 23.3,38.85 L26.95,38.85 C29.3,38.85 31.25,37.1 31.5,34.7 L27.6,34.7 Z" id="Shape"></path>
                        <path d="M35.15,28.9 C34.05,28.9 33.2,29.75 33.2,30.75 L33.2,33.1 L35.15,33.1 L35.15,33.95 L35.15,33.1 C36.15,33.1 37.1,32.25 37.1,31.25 L37.1,30.75 C37,29.75 36.15,28.9 35.15,28.9 Z" id="Shape"></path>
                        <path d="M35.05,27.3 C33.1,27.3 31.5,28.9 31.5,30.85 L31.5,33.2 L18.75,33.2 L18.75,17 L31.6,17 L31.6,19.35 C31.6,21.3 33.2,22.9 35.05,22.9 L35.15,22.9 C37.1,22.9 38.7,21.3 38.7,19.35 L38.7,18.85 C38.7,16.9 37.1,15.3 35.15,15.3 L33.2,15.3 C32.95,12.1 30.35,9.55 27.05,9.55 L23.4,9.55 C20.1,9.55 17.4,12.1 17.15,15.3 C13.95,15.45 11.3,18.15 11.3,21.45 L11.3,28.45 C11.3,31.75 13.85,34.45 17.15,34.7 C17.4,37.9 20,40.45 23.3,40.55 L26.95,40.55 C30.25,40.55 32.95,38 33.1,34.8 L35.05,34.8 C37,34.8 38.6,33.2 38.6,31.35 L38.6,30.85 C38.7,28.9 37.1,27.3 35.05,27.3 Z M17.05,17 L17.05,33.15 C14.7,32.9 12.9,30.95 12.9,28.6 L12.9,21.6 C13,19.1 14.8,17.15 17.05,17 Z M35.15,17 C36.15,17 37.1,17.85 37,18.95 L37,19.45 C37,20.45 36.15,21.3 35.05,21.3 C34.05,21.3 33.2,20.45 33.2,19.45 L33.2,17 L35.15,17 Z M23.4,11.15 L27.05,11.15 C29.4,11.15 31.35,12.9 31.6,15.3 L18.85,15.3 C19,13 21.05,11.15 23.4,11.15 Z M26.95,38.85 L23.3,38.85 C20.95,38.85 19,37.1 18.75,34.7 L31.5,34.7 C31.25,37.1 29.3,38.95 26.95,38.85 Z M37,31.25 C37,32.25 36.15,33.1 35.05,33.1 L33.2,33.1 L33.2,30.75 C33.2,29.75 34.05,28.9 35.15,28.9 C36.15,28.9 37,29.75 37,30.75 L37,31.25 Z" id="Shape" fill="#FFFFFF" fill-rule="nonzero"></path>
                    </g>
                </g>
            </g>
        </g>
    </g>
</svg>